<svg width="16" height="17" viewBox="0 0 16 17" fill="none" xmlns="http://www.w3.org/2000/svg">
<path d="M7.99973 9.36665C7.91306 9.36665 7.8264 9.34665 7.7464 9.29999L1.85973 5.89332C1.6264 5.75332 1.53973 5.44665 1.67973 5.20665C1.81973 4.96665 2.1264 4.88665 2.3664 5.02665L7.99973 8.28665L13.5997 5.04665C13.8397 4.90665 14.1464 4.99332 14.2864 5.22665C14.4264 5.46665 14.3397 5.77332 14.1064 5.91332L8.25973 9.29999C8.17306 9.33999 8.0864 9.36665 7.99973 9.36665Z" fill="#FD4D00"/>
<path d="M8 15.4068C7.72667 15.4068 7.5 15.1801 7.5 14.9068V8.86011C7.5 8.58677 7.72667 8.36011 8 8.36011C8.27333 8.36011 8.5 8.58677 8.5 8.86011V14.9068C8.5 15.1801 8.27333 15.4068 8 15.4068Z" fill="#FD4D00"/>
<path d="M8.00042 15.6666C7.41375 15.6666 6.83375 15.5399 6.37375 15.2866L2.81375 13.3066C1.84708 12.7733 1.09375 11.4866 1.09375 10.3799V6.61325C1.09375 5.50659 1.84708 4.22659 2.81375 3.68659L6.37375 1.71325C7.28708 1.20659 8.71375 1.20659 9.62708 1.71325L13.1871 3.69325C14.1538 4.22659 14.9071 5.51325 14.9071 6.61992V10.3866C14.9071 11.4933 14.1538 12.7733 13.1871 13.3133L9.62708 15.2866C9.16708 15.5399 8.58708 15.6666 8.00042 15.6666ZM8.00042 2.33325C7.58042 2.33325 7.16708 2.41992 6.86042 2.58659L3.30042 4.56659C2.66042 4.91992 2.09375 5.87992 2.09375 6.61325V10.3799C2.09375 11.1133 2.66042 12.0733 3.30042 12.4333L6.86042 14.4133C7.46708 14.7533 8.53375 14.7533 9.14042 14.4133L12.7004 12.4333C13.3404 12.0733 13.9071 11.1199 13.9071 10.3799V6.61325C13.9071 5.87992 13.3404 4.91992 12.7004 4.55992L9.14042 2.57992C8.83375 2.41992 8.42042 2.33325 8.00042 2.33325Z" fill="#FD4D00"/>
</svg>
